# xmcd CD database file
#
# Track frame offsets:
#	150
#	14581
#	26130
#	40560
#	51713
#	66449
#	79002
#	92539
#	107597
#	120669
#	132926
#	146601
#	161058
#	175514
#	187799
#	199948
#
# Disc length: 2833 seconds
#
# Revision: 0
# Processed by: cddbd v1.5.2PL0 Copyright (c) Steve Scherf et al.
# Submitted via: CDex 1.51
#
DISCID=d90b0f10
DTITLE=Ella Fitzgerald - Ella Fitzgerald
DYEAR=2006
DGENRE=Blues
TTITLE0=Into Each Life Some Rain Must Fall - With The Inkspots
TTITLE1=It's Only A Paper Moon - With The Delta Rhythm Boys
TTITLE2=Can Anyone Explain - With Louis Armstrong
TTITLE3=Flying Home - With Vic Schoen and His Orchestra
TTITLE4=I'm Making Believe - With The Inkspots
TTITLE5=Big Boy Blue - With The Mills Brothers
TTITLE6=Cow Cow Boogie - With The Inkspots
TTITLE7=He's My Guy - With The Four Keys
TTITLE8=You Won't Be Satisfied - With Louis Armstrong
TTITLE9=Baby It's Cold Outside - With Sarah Vaughan
TTITLE10=Imagination - And Her Famous Orchestra
TTITLE11=And Her Tears Flowed Like Wine - With The Song Spinners
TTITLE12=Dedicated To You - With The Mills Brothers
TTITLE13=Mama, Come Home - With The Four Keys
TTITLE14=I'm Beginning To See The Light - With The Inkspots
TTITLE15=Cry You Out Of My Heart - With The Delta Rhythm Boys
EXTD=YEAR: 2006
EXTT0=
EXTT1=
EXTT2=
EXTT3=
EXTT4=
EXTT5=
EXTT6=
EXTT7=
EXTT8=
EXTT9=
EXTT10=
EXTT11=
EXTT12=
EXTT13=
EXTT14=
EXTT15=
PLAYORDER=
